<svg width="265" height="49" viewBox="0 0 265 49" fill="none" xmlns="http://www.w3.org/2000/svg">
<g clip-path="url(#clip0_26_210)">
<path d="M5.74902 29.5375C5.20442 35.0751 0.684814 34.1971 0.684814 34.1971L1.07672 36.5714H16.8012L17.5468 34.2709C12.6913 34.4236 14.0502 30.4155 14.0502 30.4155L18.0482 8.00324C18.6844 4.61099 22.8299 5.36426 22.8299 5.36426L22.3998 2.8805H6.74404L5.85844 5.32354C5.85844 5.32354 10.121 4.79676 9.60188 8.47658L5.72102 29.8073" fill="#0871B9"/>
<path d="M29.4868 12.7323L30.0365 9.77267L19.5289 11.2538L19.2108 13.086C19.2108 13.086 22.7812 12.1215 21.552 17.2239L18.8418 32.0653H25.9622L28.8201 16.5063C28.8201 16.5063 29.0847 14.2694 31.8535 14.2108C31.8535 14.2108 34.9429 14.2388 33.9301 18.8297L31.4667 32.1239L42.0022 30.7013L42.2949 28.9378C42.2949 28.9378 38.582 29.6554 39.6865 26.0799L41.394 16.2493C41.394 16.2493 42.2466 10.615 38.9256 9.72687C38.9256 9.72687 35.1287 8.01929 29.4868 12.7323Z" fill="#0871B9"/>
<path d="M52.8985 32.2272C52.8985 32.2272 47.2236 33.1815 44.7297 30.5578C44.7297 30.5578 40.2024 26.8525 44.5821 17.7649C48.9515 8.69263 58.6524 9.89634 58.6524 9.89634L59.1639 7.01305C59.1639 7.01305 59.6423 4.39951 55.5248 4.86776L56.0948 2.91588L67.2819 1.39407L62.7267 26.2468C62.7267 26.2468 61.7189 29.321 66.3301 28.9673L66.0502 30.6748L54.6367 32.2653L58.1562 12.7033C58.1562 12.7033 54.1582 11.5988 51.7101 17.9329C51.7101 17.9329 47.1931 29.5882 53.6493 30.3542L53.377 32.0643L52.8985 32.2272Z" fill="#0871B9"/>
<path d="M79.5338 11.7426C79.5338 11.7426 76.3019 10.4473 74.4544 20.0209C72.5508 29.8134 75.9482 30.2511 75.9482 30.2511C75.9482 30.2511 79.6865 31.6813 81.389 22.0568C82.8065 14.0329 81.2032 11.8597 79.5338 11.7426ZM79.2514 9.10871C85.5702 9.14179 90.0592 14.5012 89.2932 21.0948C88.5196 27.6707 82.7709 32.9766 76.4546 32.9512C70.146 32.9181 65.6416 27.5587 66.4178 20.9676C67.1813 14.3816 72.9402 9.08326 79.2514 9.10871Z" fill="#0871B9"/>
<path d="M115.71 11.7426C115.71 11.7426 112.468 10.4473 110.615 20.0209C108.722 29.8134 112.104 30.2511 112.104 30.2511C112.104 30.2511 115.85 31.6813 117.543 22.0568C118.973 14.0329 117.377 11.8597 115.71 11.7426ZM115.41 9.10871C121.721 9.14179 126.228 14.5012 125.452 21.0948C124.686 27.6707 118.932 32.9766 112.626 32.9512C106.307 32.9181 101.818 27.5587 102.579 20.9676C103.358 14.3816 109.091 9.08326 115.41 9.10871Z" fill="#0871B9"/>
<path d="M140.6 11.7426C140.6 11.7426 137.357 10.4473 135.51 20.0209C133.627 29.8134 136.996 30.2511 136.996 30.2511C136.996 30.2511 140.742 31.6813 142.45 22.0568C143.87 14.0329 142.264 11.8597 140.6 11.7426ZM140.297 9.10871C146.628 9.14179 151.11 14.5012 150.346 21.0948C149.562 27.6707 143.826 32.9766 137.528 32.9512C131.207 32.9181 126.697 27.5587 127.476 20.9676C128.237 14.3816 133.991 9.08326 140.297 9.10871Z" fill="#0871B9"/>
<path d="M100.86 12.5401C100.86 12.5401 100.969 13.0873 98.6968 24.3328C96.4395 35.5861 94.1059 38.8358 94.1059 38.8358C88.4361 50.201 79.72 48.7174 79.72 48.7174C75.5033 48.7174 71.8362 44.9052 71.8362 41.0676C71.8362 37.1588 75.1852 34.1864 79.4019 34.1864H88.1307C88.1307 34.1864 88.2732 34.0973 87.5785 36.5709H79.234C76.3227 36.5709 74.5337 39.3728 74.5337 41.3145C74.5337 43.6582 77.1141 46.1802 79.6793 46.1802C79.6793 46.1802 82.2114 46.4703 84.0157 45.5414C87.2069 43.9305 88.9043 38.9172 88.9043 38.9172C89.996 36.5811 91.5637 27.7556 91.528 27.8829C91.528 27.8829 92.4518 23.633 93.9354 12.6521H93.5563H90.108L90.6984 10.1124C93.4875 9.65429 94.5615 7.71259 94.5615 7.71259C94.5615 7.71259 97.7959 2.81126 99.8929 1.62028C104.794 -1.17139 108.568 3.89535 108.568 3.89535L103.641 8.58038C101.975 6.71247 101.361 6.2315 101.361 6.2315C99.7249 4.56464 98.4729 6.51144 98.4729 6.51144C97.2692 10.0615 101.361 9.90114 101.361 9.90114H106.018L105.38 12.5401H100.86Z" fill="#0871B9"/>
<path d="M73.4126 34.1974H19.7829L19.1111 36.5819H70.995C70.995 36.5819 71.4174 35.0728 73.4126 34.1974Z" fill="#0871B9"/>
<path d="M98.1739 34.1974H251.497L250.268 36.5819H97.3799C97.3799 36.5819 98.0059 35.5181 98.1739 34.1974Z" fill="#0871B9"/>
<path d="M162.084 32.2272C162.084 32.2272 156.394 33.1815 153.915 30.5578C153.915 30.5578 149.391 26.8525 153.768 17.7649C158.142 8.69263 167.833 9.89634 167.833 9.89634L168.347 7.01305C168.347 7.01305 168.828 4.39951 164.708 4.86776L165.273 2.91588L176.468 1.39407L171.92 26.2468C171.92 26.2468 170.92 29.321 175.513 28.9673L175.228 30.6748L163.83 32.2653L167.352 12.7135C167.352 12.7135 163.336 11.5988 160.888 17.9329C160.888 17.9329 156.391 29.5882 162.853 30.3542L162.555 32.0643L162.084 32.2272Z" fill="#0871B9"/>
<path d="M192.202 21.3422C192.054 28.9665 194.382 30.4145 197.597 30.5469C201.612 30.6919 205.516 25.5743 205.432 23.1058L207.824 22.0421L206.073 31.8345L203.956 31.8778C201.325 31.9363 199.213 32.6947 197.169 32.6947C187.863 32.6514 183.567 25.9229 184.539 18.2095C185.74 8.60538 194.288 1.16176 202.859 1.94557C205.109 2.19242 209.02 2.77264 209.786 2.77264H211.092L209.476 11.6643L207.448 12.644C207.486 12.6033 207.448 4.25118 202.025 3.98906C196.764 3.72949 192.387 12.7331 192.202 21.3422Z" fill="#EB262A"/>
<path d="M223.712 16.9483L223.315 15.1898C223.353 15.2255 229.69 14.0116 230.425 8.63946C230.751 6.30077 229.222 4.3387 227.03 4.25981C226.224 4.25981 224.539 4.65426 224.508 4.69498L222.473 14.1617L221.045 22.7811L220.533 26.9368C220.383 28.1099 220.213 30.2272 222.91 30.1483C226.198 30.0694 229.412 26.158 229.837 22.7022C230.27 19.4651 228.425 16.6735 225.402 16.8363L223.712 16.9483ZM208.163 31.8228L207.939 30.0694C207.901 30.0694 209.517 30.2679 211.499 29.4103C213.321 28.5731 214.197 23.3333 214.339 22.7022L216.24 11.9783C216.709 9.23495 217.146 5.40244 215.971 4.76369C214.736 4.13257 212.983 4.45831 212.955 4.45831L213.965 2.77364H214.581C215.749 2.77364 226.404 2.37919 228.239 2.31048C233.059 2.14252 238.523 3.09937 238.296 7.90655C238.088 12.6043 229.942 15.2255 229.914 15.1898C229.914 15.284 237.856 15.457 237.543 21.6868C237.141 29.5681 227.829 32.4972 223.885 32.1104C218.632 31.5861 211.708 31.6803 210.392 31.7134L208.163 31.8228Z" fill="#EB262A"/>
<path d="M248.843 20.7116C248.843 20.7904 256.271 18.2736 257.296 10.3389C257.872 5.89559 255.075 4.45776 252.927 4.41705C252.113 4.37378 251.426 4.9591 251.39 4.9591L250.291 10.0233L247.962 22.6711L247.489 25.6078C247.224 27.4146 247.247 29.2418 249.55 29.7253C252.113 30.2674 253.69 30.0663 253.652 30.0663L252.634 31.8223H235.151L234.861 30.0663C234.826 30.0663 236.246 30.2267 238.437 29.4785C240.554 28.7354 241.391 22.269 241.493 21.6073L243.613 10.4025C244.007 8.40733 244.127 5.70727 243.213 5.15759C242.195 4.49085 239.808 4.41705 239.788 4.45776L240.699 2.77309H245.303C248.397 2.77309 251.39 2.74001 254.232 2.65603C259.953 2.53133 265.437 5.08888 264.781 9.96986C263.312 20.5156 249.708 22.2385 249.736 22.269L248.843 20.7116Z" fill="#EB262A"/>
</g>
<defs>
<clipPath id="clip0_26_210">
<rect width="264.149" height="48" fill="white" transform="translate(0.684814 0.781006)"/>
</clipPath>
</defs>
</svg>
