<svg width="160" height="73" viewBox="0 0 160 73" fill="none" xmlns="http://www.w3.org/2000/svg">
<g clip-path="url(#clip0_26_240)">
<mask id="mask0_26_240" style="mask-type:luminance" maskUnits="userSpaceOnUse" x="-502" y="-874" width="689" height="973">
<path d="M-501.174 98.8961H186.1V-873.107H-501.174V98.8961Z" fill="white"/>
</mask>
<g mask="url(#mask0_26_240)">
<path d="M85.6417 53.4488C85.5689 53.5527 85.3588 53.5435 85.3588 53.5435H80.7741C80.7741 53.5435 80.5686 53.525 80.4866 53.4349C80.4046 53.3403 80.467 53.1486 80.467 53.1486L81.4507 50.111L82.9527 45.6718C83.179 45.5448 83.2125 45.6718 83.2125 45.6718L85.6417 53.1579C85.6417 53.1579 85.7167 53.3472 85.6417 53.4488ZM94.2154 62.1079L86.1197 40.5975C85.7398 39.7997 85.6463 39.4545 84.4317 39.4545H81.6839C80.467 39.4545 80.3735 39.7997 79.9948 40.5975L71.8979 62.1079C71.6185 62.8722 71.4199 63.2394 72.3482 63.2394H75.8061C77.0726 63.2463 77.0657 63.3098 77.3843 62.5316L78.7294 58.6062C78.9869 58.3291 79.1797 58.3291 79.1797 58.3291H86.9336C86.9336 58.3291 87.1253 58.3291 87.2176 58.3891L88.7324 62.5316C89.0488 63.3098 89.0418 63.2463 90.3072 63.2394H93.7651C94.6933 63.2394 94.4971 62.8722 94.2154 62.1079ZM52.7994 63.2313C54.0244 63.2313 54.074 62.8953 54.074 62.0675L54.0694 55.2661C54.0694 55.2661 54.0648 55.0051 54.2172 54.9682C54.4031 54.9185 54.5381 55.1402 54.5381 55.1402L61.0267 62.669C61.3026 62.9831 61.5001 63.2382 62.1085 63.2382H67.6365C68.2969 63.2382 68.4597 62.8953 67.9055 62.131L58.4244 51.7481C58.4244 51.7481 58.2512 51.5588 58.2512 51.3152C58.2512 51.0658 58.4313 50.8938 58.4313 50.8938L67.4968 40.3516C67.8801 39.7997 67.7208 39.4545 67.0604 39.4545H62.0704C61.462 39.4545 61.268 39.712 60.9874 40.0226L54.395 47.5086C54.0694 47.586 54.0694 47.4186 54.0694 47.4186L54.074 40.6275C54.074 39.7928 54.0244 39.4545 52.7994 39.4545H50.0643C48.8381 39.4545 48.7827 39.7928 48.7827 40.6275V62.0675C48.7827 62.8953 48.8381 63.2313 50.0643 63.2313H52.7994ZM152.281 44.3544H158.714C159.536 44.3544 159.88 44.3002 159.88 43.1687V40.6333C159.88 39.4995 159.536 39.4545 158.714 39.4545L147.674 39.4499C146.845 39.4499 146.507 39.4995 146.507 40.713V61.9705C146.507 63.1886 146.845 63.2382 147.674 63.2382H158.714C159.536 63.2382 159.88 63.1909 159.88 62.0537V59.5414C159.88 58.4053 159.536 58.3602 158.714 58.3602L152.281 58.351C152.281 58.351 151.798 58.3718 151.767 57.783V53.9603C151.787 53.525 152.046 53.4349 152.189 53.4153H157.298C158.122 53.4153 158.463 53.3564 158.463 52.2238V50.1676C158.463 49.0361 158.122 48.9888 157.298 48.9888L152.257 48.9911C152.257 48.9911 151.798 49.0107 151.767 48.4242V44.9178C151.798 44.3406 152.281 44.3544 152.281 44.3544ZM134.044 50.3188C135.151 49.6607 136.808 47.8412 136.808 45.457C136.808 45.3196 136.808 45.1753 136.795 45.0379C136.602 41.6643 134.143 39.4545 130.318 39.4545H122.75C121.532 39.4545 121.479 39.7928 121.479 40.6287V62.0583C121.479 62.8953 121.532 63.2382 122.75 63.2382H130.636C136.311 63.2382 138.685 59.927 138.685 56.229C138.685 53.3276 136.866 50.8776 134.044 50.3188ZM126.742 44.0819H129.147C130.668 44.0819 131.548 44.837 131.548 46.2733C131.548 47.7118 130.636 48.4588 129.147 48.4588H126.742V44.0819ZM130.054 58.5473H126.742V53.7802H130.054C131.612 53.7802 133.238 54.3978 133.238 56.1678C133.238 57.9342 131.804 58.5473 130.054 58.5473ZM112.961 58.3602L106.388 58.351C106.388 58.351 105.872 58.3741 105.85 57.7599L105.853 40.6206C105.853 39.7928 105.8 39.4545 104.584 39.4545H101.864C100.646 39.4545 100.593 39.7928 100.593 40.6206V61.1566C100.593 62.8434 101.054 63.2382 102.638 63.2382H112.961C113.795 63.2382 114.126 63.1909 114.126 62.0537V59.5414C114.126 58.4053 113.795 58.3602 112.961 58.3602Z" fill="#010101"/>
<path d="M27.5411 63.3527C27.0458 63.0399 27.0989 62.0158 26.9454 61.4697C23.2092 48.4025 3.48494 43.9055 6.54103 29.0638C6.8897 27.4105 7.18296 25.6129 8.33058 24.0196C8.66771 23.5497 9.86844 22.9054 9.29001 24.8081C8.28901 28.0755 8.46681 31.3995 11.8439 35.393C13.5191 37.3662 16.3455 39.2654 20.5261 42.0813C28.6275 47.5389 29.5927 57.3503 29.1667 60.8405C29.0051 62.4395 28.7315 64.1124 27.5411 63.3527Z" fill="#87BD40"/>
<path d="M14.1329 5.32756C14.477 6.72572 15.441 8.73001 18.0422 10.3244C22.1501 12.8506 23.8969 14.7083 24.5492 15.3756C29.3556 20.2986 28.8003 24.8129 27.5349 29.6631C27.0662 30.7796 27.6227 31.9561 28.9342 29.9137C30.4051 27.6265 31.2456 26.4004 31.8899 23.6676C32.6807 20.2628 32.9624 15.6827 27.3502 11.1476C26.1679 10.1894 24.9349 9.3754 21.9019 8.32015C21.3327 8.12387 18.1831 7.03513 15.4676 4.9581C14.5485 4.25382 13.8766 4.31271 14.1329 5.32756Z" fill="#076535"/>
<path d="M27.2074 3.96104C27.4337 4.42055 27.3852 5.00937 27.2282 5.53007C26.9973 6.28399 26.659 6.86588 25.8843 7.07716C25.4433 7.19262 24.8325 7.20186 24.3511 7.06793C23.0187 6.69847 22.4172 5.51968 22.774 4.32588C23.1238 3.13323 24.3095 2.37584 25.643 2.73375C26.4004 2.94619 26.9142 3.34566 27.2074 3.96104Z" fill="#076535"/>
<path d="M11.3481 49.0359C5.67347 55.1204 4.78332 61.8802 5.65154 68.2279C5.84435 69.6977 5.9979 71.1478 6.01638 71.8902C6.03485 72.7873 5.03155 73.1752 4.39539 72.2481C2.14287 68.983 0.682362 65.1545 0.40527 63.059C-0.379823 57.0611 0.849771 50.4363 6.56017 44.5851C8.37512 42.7286 9.81022 41.6779 12.3745 40.1424C14.0751 39.1206 20.6861 36.8277 22.8301 35.9167C26.124 34.5278 28.7021 32.5974 29.9917 31.0977C30.8496 30.1013 31.5088 30.3264 30.9327 31.8146C29.7285 34.9827 26.6874 38.8158 22.4156 41.6075C18.5294 44.1383 12.9263 47.3422 11.3481 49.0359Z" fill="#076535"/>
<path d="M14.4781 30.6781C14.1987 31.2889 14.1236 32.119 14.3176 32.7955C14.5993 33.7827 15.1708 34.4846 16.1291 34.7548C16.6925 34.9153 17.4418 34.9153 18.056 34.7433C19.7151 34.2699 20.4714 32.7343 20.0222 31.1699C19.5777 29.6067 18.0999 28.6172 16.4408 29.0952C15.4883 29.3584 14.8464 29.8826 14.4781 30.6781Z" fill="#076535"/>
<path d="M11.4711 26.3169C16.2451 17.6532 32.9052 17.6289 33.4363 4.45091C33.4779 3.50303 33.4964 2.46394 33.1904 1.40637C33.0299 0.812931 32.3926 0.313011 32.1929 1.52298C31.7253 4.30775 29.6921 9.59443 20.9788 13.8108C13.5977 17.3784 10.8926 22.2621 10.3119 25.5364C9.9482 27.6019 11.0323 27.117 11.4711 26.3169Z" fill="#87BD40"/>
</g>
</g>
<defs>
<clipPath id="clip0_26_240">
<rect width="159.689" height="72" fill="white" transform="translate(0.191406 0.781006)"/>
</clipPath>
</defs>
</svg>
