<svg width="37" height="37" viewBox="0 0 37 37" fill="none" xmlns="http://www.w3.org/2000/svg">
<path d="M28.7202 6.25195H7.72021C6.52674 6.25195 5.38215 6.72606 4.53823 7.56997C3.69432 8.41389 3.22021 9.55848 3.22021 10.752V25.752C3.22021 26.9454 3.69432 28.09 4.53823 28.9339C5.38215 29.7778 6.52674 30.252 7.72021 30.252H28.7202C29.9137 30.252 31.0583 29.7778 31.9022 28.9339C32.7461 28.09 33.2202 26.9454 33.2202 25.752V10.752C33.2202 9.55848 32.7461 8.41389 31.9022 7.56997C31.0583 6.72606 29.9137 6.25195 28.7202 6.25195ZM7.72021 9.25195H28.7202C29.118 9.25195 29.4996 9.40999 29.7809 9.69129C30.0622 9.9726 30.2202 10.3541 30.2202 10.752L18.2202 18.072L6.22021 10.752C6.22021 10.3541 6.37825 9.9726 6.65955 9.69129C6.94086 9.40999 7.32239 9.25195 7.72021 9.25195ZM30.2202 25.752C30.2202 26.1498 30.0622 26.5313 29.7809 26.8126C29.4996 27.0939 29.118 27.252 28.7202 27.252H7.72021C7.32239 27.252 6.94086 27.0939 6.65955 26.8126C6.37825 26.5313 6.22021 26.1498 6.22021 25.752V14.172L17.4402 21.027C17.6682 21.1586 17.9269 21.2279 18.1902 21.2279C18.4535 21.2279 18.7122 21.1586 18.9402 21.027L30.2202 14.172V25.752Z" fill="#828282"/>
</svg>
