<svg width="37" height="37" viewBox="0 0 37 37" fill="none" xmlns="http://www.w3.org/2000/svg">
<path d="M15.2202 26.5771L12.5652 29.1571C11.869 29.8533 10.9248 30.2444 9.94021 30.2444C8.95565 30.2444 8.01141 29.8533 7.31521 29.1571C6.61902 28.4609 6.2279 27.5167 6.2279 26.5321C6.2279 25.5475 6.61902 24.6033 7.31521 23.9071L14.1252 17.0821C14.7936 16.4115 15.6942 16.0235 16.6407 15.9984C17.5872 15.9733 18.5072 16.3129 19.2102 16.9471L19.3902 17.0971C19.6747 17.3756 20.0581 17.5296 20.4561 17.5254C20.8542 17.5212 21.2342 17.359 21.5127 17.0746C21.7912 16.7902 21.9453 16.4067 21.941 16.0087C21.9368 15.6106 21.7747 15.2306 21.4902 14.9521C21.4056 14.8426 21.3154 14.7375 21.2202 14.6371C19.9397 13.5231 18.2837 12.9374 16.5876 12.9986C14.8914 13.0599 13.282 13.7636 12.0852 14.9671L5.18521 21.7921C4.01275 23.0683 3.37864 24.7481 3.41533 26.4807C3.45201 28.2134 4.15664 29.8648 5.38206 31.0902C6.60749 32.3157 8.25896 33.0203 9.99158 33.057C11.7242 33.0937 13.404 32.4596 14.6802 31.2871L17.2752 28.7521C17.5314 28.4726 17.6723 28.1064 17.6694 27.7272C17.6666 27.348 17.5202 26.984 17.2598 26.7084C16.9994 26.4327 16.6442 26.266 16.2658 26.2416C15.8874 26.2173 15.5138 26.3371 15.2202 26.5771ZM31.2552 5.2171C29.9934 3.96311 28.2867 3.25928 26.5077 3.25928C24.7288 3.25928 23.022 3.96311 21.7602 5.2171L19.1652 7.7521C18.909 8.03162 18.7681 8.39781 18.771 8.77699C18.7739 9.15617 18.9202 9.5202 19.1806 9.79582C19.4411 10.0714 19.7962 10.2382 20.1746 10.2626C20.553 10.2869 20.9266 10.1671 21.2202 9.92709L23.8152 7.3471C24.5114 6.6509 25.4556 6.25978 26.4402 6.25978C27.4248 6.25978 28.369 6.6509 29.0652 7.3471C29.7614 8.04329 30.1525 8.98753 30.1525 9.9721C30.1525 10.9567 29.7614 11.9009 29.0652 12.5971L22.2552 19.4221C21.5868 20.0927 20.6862 20.4807 19.7397 20.5058C18.7932 20.5309 17.8733 20.1913 17.1702 19.5571L16.9902 19.4071C16.7058 19.1286 16.3224 18.9745 15.9243 18.9788C15.5263 18.983 15.1462 19.1452 14.8677 19.4296C14.5892 19.714 14.4352 20.0975 14.4394 20.4955C14.4436 20.8936 14.6058 21.2736 14.8902 21.5521C14.9992 21.6635 15.1144 21.7687 15.2352 21.8671C16.5172 22.9778 18.1726 23.5613 19.8677 23.5C21.5628 23.4388 23.1717 22.7374 24.3702 21.5371L31.1952 14.7121C32.4572 13.4582 33.1718 11.7559 33.1831 9.97697C33.1943 8.198 32.5013 6.48683 31.2552 5.2171Z" fill="#828282"/>
</svg>
