<svg width="37" height="37" viewBox="0 0 37 37" fill="none" xmlns="http://www.w3.org/2000/svg">
<path d="M29.3801 19.752C29.0501 19.752 28.7051 19.647 28.3751 19.572C27.7068 19.4247 27.0501 19.2292 26.4101 18.987C25.7143 18.7338 24.9493 18.747 24.2626 19.0239C23.5758 19.3008 23.0157 19.822 22.6901 20.487L22.3601 21.162C20.8991 20.3493 19.5566 19.3398 18.3701 18.162C17.1923 16.9755 16.1829 15.633 15.3701 14.172L16.0001 13.752C16.6652 13.4264 17.1863 12.8663 17.4632 12.1795C17.7401 11.4928 17.7533 10.7279 17.5001 10.032C17.262 9.39063 17.0665 8.7342 16.9151 8.067C16.8401 7.737 16.7801 7.392 16.7351 7.047C16.553 5.99043 15.9996 5.03361 15.1746 4.34886C14.3495 3.6641 13.3072 3.29641 12.2351 3.312H7.73512C7.08867 3.30593 6.4485 3.43922 5.85819 3.7028C5.26788 3.96637 4.74129 4.35404 4.31427 4.83942C3.88725 5.3248 3.56982 5.89649 3.3836 6.51557C3.19738 7.13465 3.14674 7.78659 3.23512 8.427C4.03423 14.7111 6.90417 20.5498 11.3916 25.021C15.879 29.4921 21.7282 32.3408 28.0151 33.117H28.5851C29.6912 33.1186 30.7592 32.7128 31.5851 31.977C32.0597 31.5526 32.4387 31.0323 32.6973 30.4505C32.9559 29.8687 33.0881 29.2387 33.0851 28.602V24.102C33.0667 23.0601 32.6873 22.0568 32.0116 21.2635C31.3359 20.4702 30.4058 19.9359 29.3801 19.752ZM30.1301 28.752C30.1299 28.965 30.0842 29.1755 29.9963 29.3694C29.9084 29.5634 29.7801 29.7364 29.6201 29.877C29.453 30.0225 29.2571 30.1311 29.0451 30.1957C28.8332 30.2604 28.61 30.2795 28.3901 30.252C22.7725 29.5317 17.5545 26.9617 13.5592 22.9474C9.56392 18.9331 7.01874 13.703 6.32512 8.082C6.30125 7.86228 6.32217 7.63999 6.38662 7.42859C6.45108 7.21718 6.55773 7.02103 6.70012 6.852C6.84069 6.692 7.01371 6.56376 7.20769 6.47583C7.40167 6.38789 7.61214 6.34227 7.82512 6.342H12.3251C12.6739 6.33424 13.0146 6.44832 13.2883 6.66461C13.5621 6.88089 13.7519 7.18585 13.8251 7.527C13.8851 7.937 13.9601 8.342 14.0501 8.742C14.2234 9.53272 14.454 10.3098 14.7401 11.067L12.6401 12.042C12.4606 12.1244 12.2991 12.2414 12.1649 12.3864C12.0307 12.5314 11.9264 12.7014 11.8581 12.8868C11.7898 13.0722 11.7588 13.2692 11.7669 13.4666C11.775 13.664 11.8219 13.8578 11.9051 14.037C14.0639 18.6611 17.781 22.3782 22.4051 24.537C22.7703 24.687 23.1799 24.687 23.5451 24.537C23.7322 24.4701 23.9041 24.3667 24.0509 24.2328C24.1977 24.0989 24.3164 23.9372 24.4001 23.757L25.3301 21.657C26.1056 21.9343 26.897 22.1647 27.7001 22.347C28.1001 22.437 28.5051 22.512 28.9151 22.572C29.2563 22.6452 29.5612 22.835 29.7775 23.1088C29.9938 23.3826 30.1079 23.7232 30.1001 24.072L30.1301 28.752Z" fill="#828282"/>
</svg>
