<svg width="24" height="25" viewBox="0 0 24 25" fill="none" xmlns="http://www.w3.org/2000/svg">
<path d="M19 4.71021H17V3.71021C17 3.44499 16.8946 3.19063 16.7071 3.0031C16.5196 2.81556 16.2652 2.71021 16 2.71021C15.7348 2.71021 15.4804 2.81556 15.2929 3.0031C15.1054 3.19063 15 3.44499 15 3.71021V4.71021H9V3.71021C9 3.44499 8.89464 3.19063 8.70711 3.0031C8.51957 2.81556 8.26522 2.71021 8 2.71021C7.73478 2.71021 7.48043 2.81556 7.29289 3.0031C7.10536 3.19063 7 3.44499 7 3.71021V4.71021H5C4.20435 4.71021 3.44129 5.02628 2.87868 5.58888C2.31607 6.15149 2 6.91456 2 7.71021V19.7102C2 20.5059 2.31607 21.2689 2.87868 21.8315C3.44129 22.3941 4.20435 22.7102 5 22.7102H19C19.7956 22.7102 20.5587 22.3941 21.1213 21.8315C21.6839 21.2689 22 20.5059 22 19.7102V7.71021C22 6.91456 21.6839 6.15149 21.1213 5.58888C20.5587 5.02628 19.7956 4.71021 19 4.71021ZM20 19.7102C20 19.9754 19.8946 20.2298 19.7071 20.4173C19.5196 20.6048 19.2652 20.7102 19 20.7102H5C4.73478 20.7102 4.48043 20.6048 4.29289 20.4173C4.10536 20.2298 4 19.9754 4 19.7102V12.7102H20V19.7102ZM20 10.7102H4V7.71021C4 7.44499 4.10536 7.19063 4.29289 7.0031C4.48043 6.81556 4.73478 6.71021 5 6.71021H7V7.71021C7 7.97542 7.10536 8.22978 7.29289 8.41731C7.48043 8.60485 7.73478 8.71021 8 8.71021C8.26522 8.71021 8.51957 8.60485 8.70711 8.41731C8.89464 8.22978 9 7.97542 9 7.71021V6.71021H15V7.71021C15 7.97542 15.1054 8.22978 15.2929 8.41731C15.4804 8.60485 15.7348 8.71021 16 8.71021C16.2652 8.71021 16.5196 8.60485 16.7071 8.41731C16.8946 8.22978 17 7.97542 17 7.71021V6.71021H19C19.2652 6.71021 19.5196 6.81556 19.7071 7.0031C19.8946 7.19063 20 7.44499 20 7.71021V10.7102Z" fill="#828282"/>
</svg>
